<svg id="Layer_1" data-name="Layer 1" xmlns="http://www.w3.org/2000/svg" viewBox="0 0 500 500"><defs><style>.cls-1{fill:#ed667a;}.cls-2{fill:#c64268;}.cls-3{fill:none;stroke:#000;stroke-linecap:round;stroke-linejoin:round;stroke-width:15px;}</style></defs><title>stomach</title><path class="cls-1" d="M325.61,72.45s109-10.77,147.7,88c62.43,159.25-41.92,336.85-185.13,316.22-107.91-15.55-165-122.33-213-79.81-27.36,24.21-19.59,95.09-19.59,95.09H8.46s-4.52-88.3,25.23-130.76c77.89-111.16,175,31.64,216.3-27,25.18-35.77-38.26-78.67-38.26-157.77,0-58.84,47.83-85.86,47.83-85.86s-27.74-27.72-32-82.52h64.95S304.84,45.84,325.61,72.45Z"/><path class="cls-2" d="M29.38,390.54c-9.4,8.33-14.72,22.06-17.65,36.61a366.25,366.25,0,0,0-3.32,39.68c.11,12.1,1,20.56,1,20.56H8.31c.07,2.92.15,4.55.15,4.55H55.54s-7.77-70.88,19.59-95.09a41.47,41.47,0,0,1,10.16-6.76C64.37,378.79,46.32,375.55,29.38,390.54Z"/><path class="cls-2" d="M473.31,160.44c-23.65-60.34-73.54-79.79-108.78-85.79C391.64,87,419,109.38,434.88,149.79c59.85,152.66-30.81,321.88-163.3,323.68,5.4,1.29,10.93,2.37,16.6,3.19C431.39,497.29,535.74,319.69,473.31,160.44Z"/><path class="cls-3" d="M325.61,72.45s109-10.77,147.7,88c62.43,159.25-41.92,336.85-185.13,316.22-107.91-15.55-165-122.33-213-79.81-27.36,24.21-19.59,95.09-19.59,95.09H8.46s-4.52-88.3,25.23-130.76c77.89-111.16,175,31.64,216.3-27,25.18-35.77-38.26-78.67-38.26-157.77,0-58.84,47.83-85.86,47.83-85.86s-27.74-27.72-32-82.52h64.95S304.84,45.84,325.61,72.45Z"/><path class="cls-3" d="M216,348.56s35.78,8.79,71.56,0"/></svg>